<svg width="29" height="29" viewBox="0 0 29 29" fill="none" xmlns="http://www.w3.org/2000/svg">
<path fill-rule="evenodd" clip-rule="evenodd" d="M2.29785 16.2742L22.288 16.2742L13.5419 25.0181C13.1999 25.3438 13.0063 25.7954 13.0063 26.2676C13.0063 26.7399 13.1999 27.1915 13.5419 27.5171C13.8675 27.8592 14.3192 28.0527 14.7914 28.0527C15.2637 28.0527 15.7153 27.8592 16.0409 27.5171L27.643 15.9172C28.3586 15.0996 28.3586 13.8787 27.643 13.0611L16.0409 1.46217C15.7153 1.12016 15.2637 0.926584 14.7914 0.926584C14.3192 0.926584 13.8675 1.12016 13.5419 1.46217C13.1999 1.78782 13.0063 2.23943 13.0063 2.71168C13.0063 3.18393 13.1999 3.63554 13.5419 3.96119L22.288 12.7073L2.29785 12.7073C1.81796 12.6799 1.34921 12.8586 1.00933 13.1985C0.669447 13.5384 0.490728 14.0072 0.518063 14.487C0.488552 14.9682 0.666307 15.4389 1.00645 15.7805C1.34659 16.122 1.81661 16.3017 2.29785 16.2742H2.29785Z" fill="#F2DA7C"/>
</svg>
