<svg width="28" height="29" viewBox="0 0 28 29" fill="none" xmlns="http://www.w3.org/2000/svg">
<path fill-rule="evenodd" clip-rule="evenodd" d="M26.1472 12.6585H6.15711L14.9032 3.91449C15.2452 3.58884 15.4388 3.13723 15.4388 2.66498C15.4388 2.19273 15.2452 1.74112 14.9032 1.41547C14.5775 1.07346 14.1259 0.879883 13.6537 0.879883C13.1814 0.879883 12.7298 1.07346 12.4042 1.41547L0.80206 13.0155C0.0864879 13.833 0.0864879 15.0539 0.80206 15.8715L12.4042 27.4704C12.7298 27.8125 13.1814 28.006 13.6537 28.006C14.1259 28.006 14.5775 27.8125 14.9032 27.4704C15.2452 27.1448 15.4388 26.6932 15.4388 26.2209C15.4388 25.7487 15.2452 25.2971 14.9032 24.9714L6.15711 16.2254H26.1472C26.6271 16.2527 27.0959 16.074 27.4357 15.7341C27.7756 15.3942 27.9543 14.9255 27.927 14.4456C27.9565 13.9645 27.7788 13.4937 27.4386 13.1522C27.0985 12.8106 26.6285 12.6309 26.1472 12.6585H26.1472Z" fill="#F2DA7C"/>
</svg>
