<svg width="84" height="85" viewBox="0 0 84 85" fill="none" xmlns="http://www.w3.org/2000/svg">
<circle cx="41.8773" cy="42.1878" r="41.8773" fill="#0F0F0F"/>
<path fill-rule="evenodd" clip-rule="evenodd" d="M54.1472 40.6585H34.1571L42.9032 31.9145C43.2452 31.5888 43.4388 31.1372 43.4388 30.665C43.4388 30.1927 43.2452 29.7411 42.9032 29.4155C42.5775 29.0735 42.1259 28.8799 41.6537 28.8799C41.1814 28.8799 40.7298 29.0735 40.4042 29.4155L28.8021 41.0155C28.0865 41.833 28.0865 43.0539 28.8021 43.8715L40.4042 55.4704C40.7298 55.8125 41.1814 56.006 41.6537 56.006C42.1259 56.006 42.5775 55.8125 42.9032 55.4704C43.2452 55.1448 43.4388 54.6932 43.4388 54.2209C43.4388 53.7487 43.2452 53.2971 42.9032 52.9714L34.1571 44.2254H54.1472C54.6271 44.2527 55.0959 44.074 55.4357 43.7341C55.7756 43.3942 55.9543 42.9255 55.927 42.4456C55.9565 41.9645 55.7788 41.4937 55.4386 41.1522C55.0985 40.8106 54.6285 40.6309 54.1472 40.6585H54.1472Z" fill="#F2DA7C"/>
</svg>
