<svg width="84" height="85" viewBox="0 0 84 85" fill="none" xmlns="http://www.w3.org/2000/svg">
<circle cx="42.1229" cy="42.2347" r="41.8773" fill="#0F0F0F"/>
<path fill-rule="evenodd" clip-rule="evenodd" d="M30.2978 44.2742H50.288L41.5419 53.0181C41.1999 53.3438 41.0063 53.7954 41.0063 54.2676C41.0063 54.7399 41.1999 55.1915 41.5419 55.5171C41.8675 55.8592 42.3192 56.0527 42.7914 56.0527C43.2637 56.0527 43.7153 55.8592 44.0409 55.5171L55.643 43.9172C56.3586 43.0996 56.3586 41.8787 55.643 41.0611L44.0409 29.4622C43.7153 29.1202 43.2637 28.9266 42.7914 28.9266C42.3192 28.9266 41.8675 29.1202 41.5419 29.4622C41.1999 29.7878 41.0063 30.2394 41.0063 30.7117C41.0063 31.1839 41.1999 31.6355 41.5419 31.9612L50.288 40.7073H30.2978C29.818 40.6799 29.3492 40.8586 29.0093 41.1985C28.6694 41.5384 28.4907 42.0072 28.5181 42.487C28.4886 42.9682 28.6663 43.4389 29.0064 43.7805C29.3466 44.122 29.8166 44.3017 30.2978 44.2742H30.2978Z" fill="#F2DA7C"/>
</svg>
