<svg width="34" height="35" viewBox="0 0 34 35" fill="none" xmlns="http://www.w3.org/2000/svg">
<g clip-path="url(#clip0)">
<path fill-rule="evenodd" clip-rule="evenodd" d="M24.0834 3.33333H9.91675C9.13434 3.33333 8.50008 3.9676 8.50008 4.75V30.25C8.50008 31.0324 9.13434 31.6667 9.91675 31.6667H24.0834C24.8658 31.6667 25.5001 31.0324 25.5001 30.25V4.75C25.5001 3.9676 24.8658 3.33333 24.0834 3.33333ZM9.91675 0.5C7.56954 0.5 5.66675 2.40279 5.66675 4.75V30.25C5.66675 32.5972 7.56954 34.5 9.91675 34.5H24.0834C26.4306 34.5 28.3334 32.5972 28.3334 30.25V4.75C28.3334 2.40279 26.4306 0.5 24.0834 0.5H9.91675Z" fill="#7CF295"/>
<path d="M18.4166 27.4167C18.4166 28.1991 17.7823 28.8333 16.9999 28.8333C16.2175 28.8333 15.5833 28.1991 15.5833 27.4167C15.5833 26.6343 16.2175 26 16.9999 26C17.7823 26 18.4166 26.6343 18.4166 27.4167Z" fill="#7CF295"/>
</g>
<defs>
<clipPath id="clip0">
<rect width="34" height="34" fill="white" transform="translate(0 0.5)"/>
</clipPath>
</defs>
</svg>
