<svg width="34" height="35" viewBox="0 0 34 35" fill="none" xmlns="http://www.w3.org/2000/svg">
<path fill-rule="evenodd" clip-rule="evenodd" d="M16.9999 28.8333C23.2591 28.8333 28.3333 23.7591 28.3333 17.4999C28.3333 11.2407 23.2591 6.16659 16.9999 6.16659C10.7407 6.16659 5.66659 11.2407 5.66659 17.4999C5.66659 23.7591 10.7407 28.8333 16.9999 28.8333ZM16.9999 31.6666C24.824 31.6666 31.1666 25.324 31.1666 17.4999C31.1666 9.67588 24.824 3.33325 16.9999 3.33325C9.17588 3.33325 2.83325 9.67588 2.83325 17.4999C2.83325 25.324 9.17588 31.6666 16.9999 31.6666Z" fill="#619EE8"/>
<path d="M15.5833 10.4167C15.5833 9.63426 16.2175 9 16.9999 9C17.7823 9 18.4166 9.63426 18.4166 10.4167C20.7638 10.4167 22.6666 12.3195 22.6666 14.6667C22.6666 15.4491 22.0323 16.0833 21.2499 16.0833C20.4675 16.0833 19.8333 15.4491 19.8333 14.6667C19.8333 13.8843 19.199 13.25 18.4166 13.25H15.2198C14.6381 13.25 14.1666 13.7215 14.1666 14.3032C14.1666 14.7565 14.4567 15.1589 14.8867 15.3023L20.0091 17.0098C21.5961 17.5388 22.6666 19.024 22.6666 20.6968C22.6666 22.8433 20.9265 24.5833 18.7801 24.5833H18.4166C18.4166 25.3657 17.7823 26 16.9999 26C16.2175 26 15.5833 25.3657 15.5833 24.5833C13.236 24.5833 11.3333 22.6805 11.3333 20.3333C11.3333 19.5509 11.9675 18.9167 12.7499 18.9167C13.5323 18.9167 14.1666 19.5509 14.1666 20.3333C14.1666 21.1157 14.8008 21.75 15.5833 21.75H18.7801C19.3617 21.75 19.8333 21.2785 19.8333 20.6968C19.8333 20.2435 19.5432 19.8411 19.1131 19.6977L13.9907 17.9902C12.4037 17.4612 11.3333 15.976 11.3333 14.3032C11.3333 12.1567 13.0733 10.4167 15.2198 10.4167H15.5833Z" fill="#619EE8"/>
</svg>
