<svg width="34" height="34" viewBox="0 0 34 34" fill="none" xmlns="http://www.w3.org/2000/svg">
<path fill-rule="evenodd" clip-rule="evenodd" d="M28.3334 7.08333H5.66675C4.88435 7.08333 4.25008 7.7176 4.25008 8.5V25.5C4.25008 26.2824 4.88434 26.9167 5.66675 26.9167H28.3334C29.1158 26.9167 29.7501 26.2824 29.7501 25.5V8.5C29.7501 7.7176 29.1158 7.08333 28.3334 7.08333ZM5.66675 4.25C3.31954 4.25 1.41675 6.15279 1.41675 8.5V25.5C1.41675 27.8472 3.31954 29.75 5.66675 29.75H28.3334C30.6806 29.75 32.5834 27.8472 32.5834 25.5V8.5C32.5834 6.15279 30.6806 4.25 28.3334 4.25H5.66675Z" fill="#5B4312"/>
<path d="M11.3333 21.9583C11.3333 23.1319 10.3819 24.0833 9.20825 24.0833C8.03465 24.0833 7.08325 23.1319 7.08325 21.9583C7.08325 20.7846 8.03465 19.8333 9.20825 19.8333C10.3819 19.8333 11.3333 20.7846 11.3333 21.9583Z" fill="#5B4312"/>
<path d="M18.4167 21.9583C18.4167 23.1319 17.4654 24.0833 16.2917 24.0833C15.1181 24.0833 14.1667 23.1319 14.1667 21.9583C14.1667 20.7846 15.1181 19.8333 16.2917 19.8333C17.4654 19.8333 18.4167 20.7846 18.4167 21.9583Z" fill="#5B4312"/>
<path d="M1.41675 11.3333H32.5834V14.1666H1.41675V11.3333Z" fill="#5B4312"/>
</svg>
