<svg width="241" height="340" viewBox="0 0 241 340" fill="none" xmlns="http://www.w3.org/2000/svg">
<path opacity="0.5" d="M66.7501 118.314C93.891 102.462 116.339 117.296 120.31 151.46C120.999 157.401 116.503 165.211 111.055 168.395L22.4779 220.084C17.0301 223.267 12.5339 220.707 13.1903 213.98C17.1613 175.188 39.6092 134.132 66.7501 118.314Z" fill="url(#paint0_linear)"/>
<path opacity="0.5" d="M36.4917 73.9107C36.4917 97.5072 50.1442 108.666 66.9801 98.82C83.816 89.0072 97.4357 61.8991 97.4357 38.3354C97.4357 14.7389 83.7832 3.58063 66.9473 13.4262C50.1114 23.2389 36.4917 50.347 36.4917 73.9107Z" fill="url(#paint1_linear)"/>
<path opacity="0.07" d="M53.6237 108.469C80.7646 92.6174 103.212 107.451 107.183 141.615C107.873 147.556 103.377 155.366 97.9287 158.55L9.35148 210.239C3.90361 213.422 -0.59253 210.863 0.0638407 204.135C4.03488 165.343 26.4827 124.287 53.6237 108.469Z" fill="url(#paint2_linear)"/>
<path opacity="0.07" d="M23.3643 64.0649C23.3643 87.6614 37.0168 98.8197 53.8527 88.9741C70.6557 79.1614 84.3082 52.0861 84.3082 28.4896C84.3082 4.8931 70.6557 -6.26519 53.8198 3.58036C36.9839 13.3931 23.3643 40.5012 23.3643 64.0649Z" fill="url(#paint3_linear)"/>
<path opacity="0.2" d="M179.023 130.358L240.164 95.0784V126.912L179.023 162.225V130.358Z" fill="url(#paint4_linear)"/>
<path fill-rule="evenodd" clip-rule="evenodd" d="M227.727 112.932C227.727 115.558 229.269 116.772 231.205 115.689C233.109 114.573 234.684 111.554 234.684 108.928C234.684 106.303 233.142 105.089 231.205 106.172C229.302 107.287 227.727 110.307 227.727 112.932Z" fill="#FFFF7C"/>
<path opacity="0.15" d="M224.609 111.947L204.622 123.466V127.93L224.609 116.41V111.947Z" fill="#203E2A"/>
<path opacity="0.15" d="M224.51 120.939L185.357 143.551V148.015L224.51 125.403V120.939Z" fill="#203E2A"/>
<path opacity="0.05" d="M82.5377 162.455L21.1343 197.899V330.125L82.5377 294.681V162.455Z" fill="url(#paint5_linear)"/>
<path opacity="0.3" fill-rule="evenodd" clip-rule="evenodd" d="M31.3735 339.051V206.825L92.777 171.381V303.607L31.3735 339.051ZM52.1137 208.367L72.6581 196.519V191.236L52.1137 203.083V208.367Z" fill="url(#paint6_linear)"/>
<path opacity="0.15" d="M86.8682 255.102L37.542 283.555V288.019L86.8682 259.565V255.102Z" fill="#203E2A"/>
<path opacity="0.15" d="M83.4221 265.8L40.9878 290.283V294.746L83.4221 270.264V265.8Z" fill="#203E2A"/>
<path fill-rule="evenodd" clip-rule="evenodd" d="M48.4058 243.976C48.4058 233.507 54.5428 221.463 62.0911 217.098C69.6393 212.733 75.7764 217.689 75.7764 228.158C75.7764 238.627 69.6393 250.671 62.0911 255.036C54.5428 259.401 48.4058 254.446 48.4058 243.976Z" fill="#FFFF7C"/>
<path opacity="0.05" d="M159.005 56.0242L97.6011 91.4682V223.694L159.005 188.25V56.0242Z" fill="url(#paint7_linear)"/>
<path opacity="0.3" fill-rule="evenodd" clip-rule="evenodd" d="M107.838 232.621V100.395L169.242 64.9514V197.177L107.838 232.621ZM128.581 101.904L149.126 90.0569V84.7732L128.581 96.6206V101.904Z" fill="url(#paint8_linear)"/>
<path opacity="0.15" d="M163.336 148.638L114.01 177.092V181.555L163.336 153.101V148.638Z" fill="#203E2A"/>
<path opacity="0.15" d="M159.891 159.369L117.457 183.852V188.315L159.891 163.832V159.369Z" fill="#203E2A"/>
<path fill-rule="evenodd" clip-rule="evenodd" d="M124.873 137.546C124.873 127.077 131.01 115.032 138.558 110.668C146.107 106.303 152.244 111.258 152.244 121.727C152.244 132.196 146.107 144.241 138.558 148.606C131.01 152.971 124.873 148.015 124.873 137.546Z" fill="#FFFF7C"/>
<path opacity="0.3" d="M124.873 211.289L222.508 154.907L222.475 205.808L133.471 257.202L124.84 269.968L124.873 211.289Z" fill="url(#paint9_linear)"/>
<path fill-rule="evenodd" clip-rule="evenodd" d="M232.944 174.762V160.945L196.088 182.212V196.028L232.944 174.762Z" fill="#FFFF7C"/>
<path opacity="0.15" d="M149.979 209.188L171.376 196.849V201.312L149.979 213.652V209.188Z" fill="#203E2A"/>
<path opacity="0.15" d="M149.979 218.148L191.231 194.355V198.818L149.979 222.612L149.979 218.148Z" fill="#203E2A"/>
<path opacity="0.15" d="M149.946 227.075L199.928 198.227V202.691L149.946 231.571V227.075H149.946Z" fill="#203E2A"/>
<path fill-rule="evenodd" clip-rule="evenodd" d="M144.696 216.901C144.696 221.102 142.201 225.926 139.149 227.698C136.097 229.47 133.603 227.501 133.603 223.3C133.603 219.1 136.097 214.275 139.149 212.503C142.234 210.731 144.696 212.7 144.696 216.901Z" fill="#FFFF7C"/>
<path opacity="0.2" d="M201.438 58.552C199.469 59.6678 197.894 62.4246 197.894 64.6891V74.6987L191.265 78.5056C189.296 79.6215 187.72 82.3782 187.72 84.6427C187.72 86.9072 189.296 87.8261 191.265 86.7103L197.894 82.9033V92.913C197.894 95.1775 199.469 96.0964 201.438 94.9805C203.407 93.8647 204.983 91.108 204.983 88.8435V78.8338L211.612 75.0269C213.581 73.9111 215.156 71.1543 215.156 68.8898C215.156 66.6253 213.581 65.7064 211.612 66.8223L204.983 70.6292V60.6196C204.983 58.3551 203.407 57.4362 201.438 58.552Z" fill="url(#paint10_linear)"/>
<path opacity="0.5" d="M66.7501 118.314C93.891 102.462 116.339 117.296 120.31 151.46C120.999 157.401 116.503 165.211 111.055 168.395L22.4779 220.084C17.0301 223.267 12.5339 220.707 13.1903 213.98C17.1613 175.188 39.6092 134.132 66.7501 118.314Z" fill="url(#paint11_linear)"/>
<path opacity="0.5" d="M36.4917 73.9107C36.4917 97.5072 50.1442 108.666 66.9801 98.82C83.816 89.0072 97.4357 61.8991 97.4357 38.3354C97.4357 14.7389 83.7832 3.58063 66.9473 13.4262C50.1114 23.2389 36.4917 50.347 36.4917 73.9107Z" fill="url(#paint12_linear)"/>
<path opacity="0.07" d="M53.6237 108.469C80.7646 92.6174 103.212 107.451 107.183 141.615C107.873 147.556 103.377 155.366 97.9287 158.55L9.35148 210.239C3.90361 213.422 -0.59253 210.863 0.0638407 204.135C4.03488 165.343 26.4827 124.287 53.6237 108.469Z" fill="url(#paint13_linear)"/>
<path opacity="0.07" d="M23.3643 64.0649C23.3643 87.6614 37.0168 98.8197 53.8527 88.9741C70.6557 79.1614 84.3082 52.0861 84.3082 28.4896C84.3082 4.8931 70.6557 -6.26519 53.8198 3.58036C36.9839 13.3931 23.3643 40.5012 23.3643 64.0649Z" fill="url(#paint14_linear)"/>
<path opacity="0.2" d="M179.023 130.358L240.164 95.0784V126.912L179.023 162.225V130.358Z" fill="url(#paint15_linear)"/>
<path fill-rule="evenodd" clip-rule="evenodd" d="M227.727 112.932C227.727 115.558 229.269 116.772 231.205 115.689C233.109 114.573 234.684 111.554 234.684 108.928C234.684 106.303 233.142 105.089 231.205 106.172C229.302 107.287 227.727 110.307 227.727 112.932Z" fill="#FFFF7C"/>
<path opacity="0.15" d="M224.609 111.947L204.622 123.466V127.93L224.609 116.41V111.947Z" fill="#203E2A"/>
<path opacity="0.15" d="M224.51 120.939L185.357 143.551V148.015L224.51 125.403V120.939Z" fill="#203E2A"/>
<path opacity="0.05" d="M82.5377 162.455L21.1343 197.899V330.125L82.5377 294.681V162.455Z" fill="url(#paint16_linear)"/>
<path opacity="0.3" fill-rule="evenodd" clip-rule="evenodd" d="M31.3735 339.051V206.825L92.777 171.381V303.607L31.3735 339.051ZM52.1137 208.367L72.6581 196.519V191.236L52.1137 203.083V208.367Z" fill="url(#paint17_linear)"/>
<path opacity="0.15" d="M86.8682 255.102L37.542 283.555V288.019L86.8682 259.565V255.102Z" fill="#203E2A"/>
<path opacity="0.15" d="M83.4221 265.8L40.9878 290.283V294.746L83.4221 270.264V265.8Z" fill="#203E2A"/>
<path fill-rule="evenodd" clip-rule="evenodd" d="M48.4058 243.976C48.4058 233.507 54.5428 221.463 62.0911 217.098C69.6393 212.733 75.7764 217.689 75.7764 228.158C75.7764 238.627 69.6393 250.671 62.0911 255.036C54.5428 259.401 48.4058 254.446 48.4058 243.976Z" fill="#FFFF7C"/>
<path opacity="0.05" d="M159.005 56.0242L97.6011 91.4682V223.694L159.005 188.25V56.0242Z" fill="url(#paint18_linear)"/>
<path opacity="0.3" fill-rule="evenodd" clip-rule="evenodd" d="M107.838 232.621V100.395L169.242 64.9514V197.177L107.838 232.621ZM128.581 101.904L149.126 90.0569V84.7732L128.581 96.6206V101.904Z" fill="url(#paint19_linear)"/>
<path opacity="0.15" d="M163.336 148.638L114.01 177.092V181.555L163.336 153.101V148.638Z" fill="#203E2A"/>
<path opacity="0.15" d="M159.891 159.369L117.457 183.852V188.315L159.891 163.832V159.369Z" fill="#203E2A"/>
<path fill-rule="evenodd" clip-rule="evenodd" d="M124.873 137.546C124.873 127.077 131.01 115.032 138.558 110.668C146.107 106.303 152.244 111.258 152.244 121.727C152.244 132.196 146.107 144.241 138.558 148.606C131.01 152.971 124.873 148.015 124.873 137.546Z" fill="#FFFF7C"/>
<path opacity="0.3" d="M124.873 211.289L222.508 154.907L222.475 205.808L133.471 257.202L124.84 269.968L124.873 211.289Z" fill="url(#paint20_linear)"/>
<path fill-rule="evenodd" clip-rule="evenodd" d="M232.944 174.762V160.945L196.088 182.212V196.028L232.944 174.762Z" fill="#FFFF7C"/>
<path opacity="0.15" d="M149.979 209.188L171.376 196.849V201.312L149.979 213.652V209.188Z" fill="#203E2A"/>
<path opacity="0.15" d="M149.979 218.148L191.231 194.355V198.818L149.979 222.612L149.979 218.148Z" fill="#203E2A"/>
<path opacity="0.15" d="M149.946 227.075L199.928 198.227V202.691L149.946 231.571V227.075H149.946Z" fill="#203E2A"/>
<path fill-rule="evenodd" clip-rule="evenodd" d="M144.696 216.901C144.696 221.102 142.201 225.926 139.149 227.698C136.097 229.47 133.603 227.501 133.603 223.3C133.603 219.1 136.097 214.275 139.149 212.503C142.234 210.731 144.696 212.7 144.696 216.901Z" fill="#FFFF7C"/>
<path opacity="0.2" d="M201.438 58.552C199.469 59.6678 197.894 62.4246 197.894 64.6891V74.6987L191.265 78.5056C189.296 79.6215 187.72 82.3782 187.72 84.6427C187.72 86.9072 189.296 87.8261 191.265 86.7103L197.894 82.9033V92.913C197.894 95.1775 199.469 96.0964 201.438 94.9805C203.407 93.8647 204.983 91.108 204.983 88.8435V78.8338L211.612 75.0269C213.581 73.9111 215.156 71.1543 215.156 68.8898C215.156 66.6253 213.581 65.7064 211.612 66.8223L204.983 70.6292V60.6196C204.983 58.3551 203.407 57.4362 201.438 58.552Z" fill="url(#paint21_linear)"/>
<defs>
<linearGradient id="paint0_linear" x1="-84.6342" y1="148.719" x2="27.133" y2="226.965" gradientUnits="userSpaceOnUse">
<stop stop-color="#203E2A"/>
<stop offset="1" stop-color="#203E2A" stop-opacity="0.01"/>
</linearGradient>
<linearGradient id="paint1_linear" x1="-15.536" y1="98.9697" x2="107.806" y2="137.981" gradientUnits="userSpaceOnUse">
<stop stop-color="#203E2A"/>
<stop offset="1" stop-color="#203E2A" stop-opacity="0.01"/>
</linearGradient>
<linearGradient id="paint2_linear" x1="-97.7605" y1="138.874" x2="14.0067" y2="217.12" gradientUnits="userSpaceOnUse">
<stop stop-color="#203E2A"/>
<stop offset="1" stop-color="#203E2A" stop-opacity="0.01"/>
</linearGradient>
<linearGradient id="paint3_linear" x1="-28.6636" y1="89.1239" x2="94.6785" y2="128.135" gradientUnits="userSpaceOnUse">
<stop stop-color="#203E2A"/>
<stop offset="1" stop-color="#203E2A" stop-opacity="0.01"/>
</linearGradient>
<linearGradient id="paint4_linear" x1="191.81" y1="124.272" x2="207.522" y2="146.842" gradientUnits="userSpaceOnUse">
<stop stop-color="#203E2A"/>
<stop offset="1" stop-color="#203E2A" stop-opacity="0.01"/>
</linearGradient>
<linearGradient id="paint5_linear" x1="-7.93126" y1="288.367" x2="93.265" y2="311.88" gradientUnits="userSpaceOnUse">
<stop stop-color="#203E2A"/>
<stop offset="1" stop-color="#203E2A" stop-opacity="0.01"/>
</linearGradient>
<linearGradient id="paint6_linear" x1="6.03226" y1="281.221" x2="91.5765" y2="301.098" gradientUnits="userSpaceOnUse">
<stop stop-color="#203E2A"/>
<stop offset="1" stop-color="#203E2A" stop-opacity="0.01"/>
</linearGradient>
<linearGradient id="paint7_linear" x1="68.5336" y1="181.932" x2="169.73" y2="205.445" gradientUnits="userSpaceOnUse">
<stop stop-color="#203E2A"/>
<stop offset="1" stop-color="#203E2A" stop-opacity="0.01"/>
</linearGradient>
<linearGradient id="paint8_linear" x1="82.4951" y1="174.788" x2="168.039" y2="194.665" gradientUnits="userSpaceOnUse">
<stop stop-color="#203E2A"/>
<stop offset="1" stop-color="#203E2A" stop-opacity="0.01"/>
</linearGradient>
<linearGradient id="paint9_linear" x1="129.409" y1="220.603" x2="184.557" y2="251.714" gradientUnits="userSpaceOnUse">
<stop stop-color="#203E2A"/>
<stop offset="1" stop-color="#203E2A" stop-opacity="0.01"/>
</linearGradient>
<linearGradient id="paint10_linear" x1="189.599" y1="83.0547" x2="209.034" y2="91.3191" gradientUnits="userSpaceOnUse">
<stop stop-color="#203E2A"/>
<stop offset="1" stop-color="#203E2A" stop-opacity="0.01"/>
</linearGradient>
<linearGradient id="paint11_linear" x1="-84.6342" y1="148.719" x2="27.133" y2="226.965" gradientUnits="userSpaceOnUse">
<stop stop-color="#203E2A"/>
<stop offset="1" stop-color="#203E2A" stop-opacity="0.01"/>
</linearGradient>
<linearGradient id="paint12_linear" x1="-15.536" y1="98.9697" x2="107.806" y2="137.981" gradientUnits="userSpaceOnUse">
<stop stop-color="#203E2A"/>
<stop offset="1" stop-color="#203E2A" stop-opacity="0.01"/>
</linearGradient>
<linearGradient id="paint13_linear" x1="-97.7605" y1="138.874" x2="14.0067" y2="217.12" gradientUnits="userSpaceOnUse">
<stop stop-color="#203E2A"/>
<stop offset="1" stop-color="#203E2A" stop-opacity="0.01"/>
</linearGradient>
<linearGradient id="paint14_linear" x1="-28.6636" y1="89.1239" x2="94.6785" y2="128.135" gradientUnits="userSpaceOnUse">
<stop stop-color="#203E2A"/>
<stop offset="1" stop-color="#203E2A" stop-opacity="0.01"/>
</linearGradient>
<linearGradient id="paint15_linear" x1="191.81" y1="124.272" x2="207.522" y2="146.842" gradientUnits="userSpaceOnUse">
<stop stop-color="#203E2A"/>
<stop offset="1" stop-color="#203E2A" stop-opacity="0.01"/>
</linearGradient>
<linearGradient id="paint16_linear" x1="-7.93126" y1="288.367" x2="93.265" y2="311.88" gradientUnits="userSpaceOnUse">
<stop stop-color="#203E2A"/>
<stop offset="1" stop-color="#203E2A" stop-opacity="0.01"/>
</linearGradient>
<linearGradient id="paint17_linear" x1="6.03226" y1="281.221" x2="91.5765" y2="301.098" gradientUnits="userSpaceOnUse">
<stop stop-color="#203E2A"/>
<stop offset="1" stop-color="#203E2A" stop-opacity="0.01"/>
</linearGradient>
<linearGradient id="paint18_linear" x1="68.5336" y1="181.932" x2="169.73" y2="205.445" gradientUnits="userSpaceOnUse">
<stop stop-color="#203E2A"/>
<stop offset="1" stop-color="#203E2A" stop-opacity="0.01"/>
</linearGradient>
<linearGradient id="paint19_linear" x1="82.4951" y1="174.788" x2="168.039" y2="194.665" gradientUnits="userSpaceOnUse">
<stop stop-color="#203E2A"/>
<stop offset="1" stop-color="#203E2A" stop-opacity="0.01"/>
</linearGradient>
<linearGradient id="paint20_linear" x1="129.409" y1="220.603" x2="184.557" y2="251.714" gradientUnits="userSpaceOnUse">
<stop stop-color="#203E2A"/>
<stop offset="1" stop-color="#203E2A" stop-opacity="0.01"/>
</linearGradient>
<linearGradient id="paint21_linear" x1="189.599" y1="83.0547" x2="209.034" y2="91.3191" gradientUnits="userSpaceOnUse">
<stop stop-color="#203E2A"/>
<stop offset="1" stop-color="#203E2A" stop-opacity="0.01"/>
</linearGradient>
</defs>
</svg>
