<svg width="35" height="35" viewBox="0 0 35 35" fill="none" xmlns="http://www.w3.org/2000/svg">
<path fill-rule="evenodd" clip-rule="evenodd" d="M17.5 26.2502C23.5163 26.2502 27.7946 22.4696 30.3001 19.3211C31.1691 18.2291 31.1691 16.7713 30.3001 15.6792C27.7946 12.5307 23.5163 8.75016 17.5 8.75016C11.4836 8.75016 7.20528 12.5307 4.69978 15.6792C3.83076 16.7713 3.83076 18.2291 4.69978 19.3211C7.20528 22.4696 11.4836 26.2502 17.5 26.2502ZM32.5824 21.1372C34.2973 18.9822 34.2973 16.0181 32.5824 13.8631C29.8578 10.4393 24.8303 5.8335 17.5 5.8335C10.1696 5.8335 5.14212 10.4393 2.41755 13.8631C0.702615 16.0181 0.702614 18.9822 2.41755 21.1372C5.14212 24.561 10.1696 29.1668 17.5 29.1668C24.8303 29.1668 29.8578 24.561 32.5824 21.1372Z" fill="#103E17"/>
<path fill-rule="evenodd" clip-rule="evenodd" d="M20.4165 17.4998C20.4165 19.1107 19.1107 20.4165 17.4998 20.4165C15.889 20.4165 14.5832 19.1107 14.5832 17.4998C14.5832 17.4584 14.584 17.4172 14.5857 17.3763C14.8131 17.4563 15.0576 17.4998 15.3123 17.4998C16.5205 17.4998 17.4998 16.5205 17.4998 15.3123C17.4998 15.0576 17.4563 14.8131 17.3763 14.5857C17.4172 14.584 17.4584 14.5832 17.4998 14.5832C19.1107 14.5832 20.4165 15.889 20.4165 17.4998ZM23.3332 17.4998C23.3332 20.7215 20.7215 23.3332 17.4998 23.3332C14.2782 23.3332 11.6665 20.7215 11.6665 17.4998C11.6665 14.2782 14.2782 11.6665 17.4998 11.6665C20.7215 11.6665 23.3332 14.2782 23.3332 17.4998Z" fill="#103E17"/>
</svg>
