<svg width="18" height="18" viewBox="0 0 18 18" fill="none" xmlns="http://www.w3.org/2000/svg">
<path fill-rule="evenodd" clip-rule="evenodd" d="M8.79647 15.6665C12.4784 15.6665 15.4631 12.6818 15.4631 8.99984C15.4631 5.31794 12.4784 2.33317 8.79647 2.33317C5.11457 2.33317 2.1298 5.31794 2.1298 8.99984C2.1298 12.6818 5.11457 15.6665 8.79647 15.6665ZM8.79647 17.3332C13.3988 17.3332 17.1298 13.6022 17.1298 8.99984C17.1298 4.39746 13.3988 0.666504 8.79647 0.666504C4.19409 0.666504 0.463135 4.39746 0.463135 8.99984C0.463135 13.6022 4.19409 17.3332 8.79647 17.3332Z" fill="#777E91"/>
<path d="M8.79647 7.33447C8.79647 6.87424 9.16955 6.50114 9.6298 6.50114H10.4631C10.9234 6.50114 11.2965 6.12805 11.2965 5.66781C11.2965 5.20757 10.9234 4.83447 10.4631 4.83447H9.6298C8.24905 4.83447 7.1298 5.95376 7.1298 7.33447V9.00114H6.29647C5.83623 9.00114 5.46313 9.37422 5.46313 9.83447C5.46313 10.2947 5.83623 10.6678 6.29647 10.6678H7.1298V15.6678C7.1298 16.1281 7.50288 16.5011 7.96313 16.5011C8.42338 16.5011 8.79647 16.1281 8.79647 15.6678V10.6678H10.4631C10.9234 10.6678 11.2965 10.2947 11.2965 9.83447C11.2965 9.37422 10.9234 9.00114 10.4631 9.00114H8.79647V7.33447Z" fill="#777E91"/>
</svg>
