<svg width="476" height="357" viewBox="0 0 476 357" fill="none" xmlns="http://www.w3.org/2000/svg">
<mask id="mask0" mask-type="alpha" maskUnits="userSpaceOnUse" x="0" y="0" width="476" height="357">
<rect width="476" height="357" fill="url(#paint0_linear)"/>
</mask>
<g mask="url(#mask0)">
<path opacity="0.9" d="M78.8829 226.138C42.5807 194.596 37.485 224.65 35.0673 225.096C35.0673 225.096 33.9886 232.349 35.0673 258.795L388.94 463.032V319.311C348.695 247.264 322.063 196.94 295.878 220.186C250.5 260.394 228.406 287.398 174.437 231.605C142.449 198.539 122.475 264.002 78.8829 226.138Z" fill="url(#paint1_linear)"/>
<path opacity="0.9" d="M125.637 251.504C89.3347 219.962 84.239 249.979 81.7841 250.462C81.7841 250.462 80.7054 257.715 81.7841 284.161L435.656 488.398V344.677C378.376 261.509 340.623 276.982 307.892 288.996C275.83 300.75 264.076 276.201 223.497 241.201C190.133 212.412 169.229 289.368 125.637 251.504Z" fill="url(#paint2_linear)"/>
<path fill-rule="evenodd" clip-rule="evenodd" d="M319.683 218.326C319.683 215.351 317.935 211.966 315.815 210.739C313.657 209.511 311.946 210.887 311.946 213.863C311.946 216.839 313.694 220.223 315.815 221.451C317.935 222.715 319.683 221.302 319.683 218.326Z" fill="#FFFF7C"/>
<path fill-rule="evenodd" clip-rule="evenodd" d="M217.062 238.337C217.062 235.473 215.277 232.126 213.045 230.861C210.813 229.596 209.028 230.861 209.028 233.725C209.028 236.589 210.813 239.937 213.045 241.201C215.239 242.466 217.062 241.201 217.062 238.337Z" fill="#FFFF7C"/>
<path opacity="0.26" d="M191.918 48.1597L260.58 87.7722V222.715L191.918 183.103V48.1597Z" fill="#203E2A"/>
<path opacity="0.6" d="M247.376 99.4514L178.714 59.8389L178.677 194.819L208.395 211.929L213.045 221.116L217.694 217.322L247.376 234.394V99.4514Z" fill="url(#paint3_linear)"/>
<path opacity="0.1" d="M238.374 141.556C238.374 147.321 237.259 152.38 235.176 156.174C233.093 159.967 230.08 162.385 226.472 163.203L214.607 127.831L238.374 141.556Z" fill="#203E2A"/>
<path opacity="0.5" d="M226.509 163.203C221.972 164.208 216.727 162.608 211.52 158.703C206.35 154.76 201.514 148.697 197.832 141.444L214.644 127.868L226.509 163.203Z" fill="#203E2A"/>
<path fill-rule="evenodd" clip-rule="evenodd" d="M238.375 141.556C238.375 136.125 237.408 130.248 235.585 124.409C233.725 118.569 231.085 112.953 227.849 108.08C224.613 103.208 220.856 99.1907 216.988 96.4011C213.082 93.6115 209.177 92.1609 205.569 92.1609C201.961 92.1609 198.762 93.5743 196.307 96.3267C193.815 99.0791 192.141 103.059 191.36 107.932C190.617 112.804 190.802 118.383 191.918 124.223C193.034 130.062 195.08 135.939 197.87 141.37L214.682 127.794L238.375 141.556Z" fill="#FFFF7C"/>
<path opacity="0.4" d="M187.678 162.199L235.176 189.611V194.67L187.678 167.257L187.678 162.199Z" fill="#203E2A"/>
<path opacity="0.4" d="M187.678 172.056L236.998 200.547V205.605L187.678 177.114V172.056Z" fill="#203E2A"/>
<path opacity="0.4" d="M187.678 181.949L220.558 200.919V205.977L187.678 187.008V181.949Z" fill="#203E2A"/>
</g>
<path opacity="0.26" d="M319 147L415 202.452V252.484L327.484 201.903L319.032 204.677L319 147Z" fill="#203E2A"/>
<path fill-rule="evenodd" clip-rule="evenodd" d="M338.484 175.032C338.484 179.161 336.032 181.097 333.032 179.355C330.032 177.613 327.581 172.871 327.581 168.742C327.581 164.613 330.032 162.677 333.032 164.419C336.064 166.161 338.484 170.903 338.484 175.032Z" fill="#FFFF7C"/>
<path opacity="0.4" d="M343.677 173.419L364.71 185.581V189.968L343.677 177.807V173.419Z" fill="#203E2A"/>
<path opacity="0.4" d="M343.677 182.226L406.484 218.516V222.903L343.677 186.613V182.226Z" fill="#203E2A"/>
<path opacity="0.4" d="M343.677 191.032L392.806 219.419V223.806L343.677 195.419V191.032Z" fill="#203E2A"/>
<mask id="mask1" mask-type="alpha" maskUnits="userSpaceOnUse" x="0" y="0" width="476" height="357">
<rect width="476" height="357" fill="url(#paint4_linear)"/>
</mask>
<g mask="url(#mask1)">
<path opacity="0.9" d="M78.8829 226.138C42.5807 194.596 37.485 224.65 35.0673 225.096C35.0673 225.096 33.9886 232.349 35.0673 258.795L388.94 463.032V319.311C348.695 247.264 322.063 196.94 295.878 220.186C250.5 260.394 228.406 287.398 174.437 231.605C142.449 198.539 122.475 264.002 78.8829 226.138Z" fill="url(#paint5_linear)"/>
<path opacity="0.9" d="M125.637 251.504C89.3347 219.962 84.239 249.979 81.7841 250.462C81.7841 250.462 80.7054 257.715 81.7841 284.161L435.656 488.398V344.677C378.376 261.509 340.623 276.982 307.892 288.996C275.83 300.75 264.076 276.201 223.497 241.201C190.133 212.412 169.229 289.368 125.637 251.504Z" fill="url(#paint6_linear)"/>
<path fill-rule="evenodd" clip-rule="evenodd" d="M319.683 218.326C319.683 215.351 317.935 211.966 315.815 210.739C313.657 209.511 311.946 210.887 311.946 213.863C311.946 216.839 313.694 220.223 315.815 221.451C317.935 222.715 319.683 221.302 319.683 218.326Z" fill="#FFFF7C"/>
<path fill-rule="evenodd" clip-rule="evenodd" d="M217.062 238.337C217.062 235.473 215.277 232.126 213.045 230.861C210.813 229.596 209.028 230.861 209.028 233.725C209.028 236.589 210.813 239.937 213.045 241.201C215.239 242.466 217.062 241.201 217.062 238.337Z" fill="#FFFF7C"/>
<path opacity="0.26" d="M191.918 48.1597L260.58 87.7722V222.715L191.918 183.103V48.1597Z" fill="#203E2A"/>
<path opacity="0.6" d="M247.376 99.4514L178.714 59.8389L178.677 194.819L208.395 211.929L213.045 221.116L217.694 217.322L247.376 234.394V99.4514Z" fill="url(#paint7_linear)"/>
<path opacity="0.1" d="M238.374 141.556C238.374 147.321 237.259 152.38 235.176 156.174C233.093 159.967 230.08 162.385 226.472 163.203L214.607 127.831L238.374 141.556Z" fill="#203E2A"/>
<path opacity="0.5" d="M226.509 163.203C221.972 164.208 216.727 162.608 211.52 158.703C206.35 154.76 201.514 148.697 197.832 141.444L214.644 127.868L226.509 163.203Z" fill="#203E2A"/>
<path fill-rule="evenodd" clip-rule="evenodd" d="M238.375 141.556C238.375 136.125 237.408 130.248 235.585 124.409C233.725 118.569 231.085 112.953 227.849 108.08C224.613 103.208 220.856 99.1907 216.988 96.4011C213.082 93.6115 209.177 92.1609 205.569 92.1609C201.961 92.1609 198.762 93.5743 196.307 96.3267C193.815 99.0791 192.141 103.059 191.36 107.932C190.617 112.804 190.802 118.383 191.918 124.223C193.034 130.062 195.08 135.939 197.87 141.37L214.682 127.794L238.375 141.556Z" fill="#FFFF7C"/>
<path opacity="0.4" d="M187.678 162.199L235.176 189.611V194.67L187.678 167.257L187.678 162.199Z" fill="#203E2A"/>
<path opacity="0.4" d="M187.678 172.056L236.998 200.547V205.605L187.678 177.114V172.056Z" fill="#203E2A"/>
<path opacity="0.4" d="M187.678 181.949L220.558 200.919V205.977L187.678 187.008V181.949Z" fill="#203E2A"/>
</g>
<path opacity="0.26" d="M319 147L415 202.452V252.484L327.484 201.903L319.032 204.677L319 147Z" fill="#203E2A"/>
<path fill-rule="evenodd" clip-rule="evenodd" d="M338.484 175.032C338.484 179.161 336.032 181.097 333.032 179.355C330.032 177.613 327.581 172.871 327.581 168.742C327.581 164.613 330.032 162.677 333.032 164.419C336.064 166.161 338.484 170.903 338.484 175.032Z" fill="#FFFF7C"/>
<path opacity="0.4" d="M343.677 173.419L364.71 185.581V189.968L343.677 177.807V173.419Z" fill="#203E2A"/>
<path opacity="0.4" d="M343.677 182.226L406.484 218.516V222.903L343.677 186.613V182.226Z" fill="#203E2A"/>
<path opacity="0.4" d="M343.677 191.032L392.806 219.419V223.806L343.677 195.419V191.032Z" fill="#203E2A"/>
<defs>
<linearGradient id="paint0_linear" x1="185" y1="209.5" x2="59" y2="260.5" gradientUnits="userSpaceOnUse">
<stop stop-color="#C4C4C4"/>
<stop offset="1" stop-color="#C4C4C4" stop-opacity="0"/>
</linearGradient>
<linearGradient id="paint1_linear" x1="168.321" y1="169.469" x2="155.291" y2="285.587" gradientUnits="userSpaceOnUse">
<stop stop-color="#568E4C"/>
<stop offset="1" stop-color="#568E4C" stop-opacity="0.01"/>
</linearGradient>
<linearGradient id="paint2_linear" x1="215.038" y1="191.901" x2="201.75" y2="309.151" gradientUnits="userSpaceOnUse">
<stop stop-color="#568E4C"/>
<stop offset="1" stop-color="#568E4C" stop-opacity="0.01"/>
</linearGradient>
<linearGradient id="paint3_linear" x1="180.21" y1="82.4171" x2="180.21" y2="249.182" gradientUnits="userSpaceOnUse">
<stop stop-color="#203E2A" stop-opacity="0.01"/>
<stop offset="1" stop-color="#203E2A"/>
</linearGradient>
<linearGradient id="paint4_linear" x1="185" y1="209.5" x2="59" y2="260.5" gradientUnits="userSpaceOnUse">
<stop stop-color="#C4C4C4"/>
<stop offset="1" stop-color="#C4C4C4" stop-opacity="0"/>
</linearGradient>
<linearGradient id="paint5_linear" x1="168.321" y1="169.469" x2="155.291" y2="285.587" gradientUnits="userSpaceOnUse">
<stop stop-color="#568E4C"/>
<stop offset="1" stop-color="#568E4C" stop-opacity="0.01"/>
</linearGradient>
<linearGradient id="paint6_linear" x1="215.038" y1="191.901" x2="201.75" y2="309.151" gradientUnits="userSpaceOnUse">
<stop stop-color="#568E4C"/>
<stop offset="1" stop-color="#568E4C" stop-opacity="0.01"/>
</linearGradient>
<linearGradient id="paint7_linear" x1="180.21" y1="82.4171" x2="180.21" y2="249.182" gradientUnits="userSpaceOnUse">
<stop stop-color="#203E2A" stop-opacity="0.01"/>
<stop offset="1" stop-color="#203E2A"/>
</linearGradient>
</defs>
</svg>
