<svg width="17" height="18" viewBox="0 0 17 18" fill="none" xmlns="http://www.w3.org/2000/svg">
<path fill-rule="evenodd" clip-rule="evenodd" d="M11.9999 2.33317H5.33325C3.4923 2.33317 1.99992 3.82555 1.99992 5.6665V12.3332C1.99992 14.1741 3.4923 15.6665 5.33325 15.6665H11.9999C13.8408 15.6665 15.3333 14.1741 15.3333 12.3332V5.6665C15.3333 3.82555 13.8408 2.33317 11.9999 2.33317ZM5.33325 0.666504C2.57183 0.666504 0.333252 2.90508 0.333252 5.6665V12.3332C0.333252 15.0946 2.57183 17.3332 5.33325 17.3332H11.9999C14.7613 17.3332 16.9999 15.0946 16.9999 12.3332V5.6665C16.9999 2.90508 14.7613 0.666504 11.9999 0.666504H5.33325Z" fill="#777E91"/>
<path d="M12.8306 5.66716C13.2909 5.66716 13.664 5.29406 13.664 4.83382C13.664 4.37359 13.2909 4.00049 12.8306 4.00049C12.3704 4.00049 11.9973 4.37359 11.9973 4.83382C11.9973 5.29406 12.3704 5.66716 12.8306 5.66716Z" fill="#777E91"/>
<path fill-rule="evenodd" clip-rule="evenodd" d="M12.8306 9.00114C12.8306 11.3023 10.9651 13.1678 8.66398 13.1678C6.3628 13.1678 4.49731 11.3023 4.49731 9.00114C4.49731 6.69996 6.3628 4.83447 8.66398 4.83447C10.9651 4.83447 12.8306 6.69996 12.8306 9.00114ZM11.164 9.00114C11.164 10.3819 10.0447 11.5011 8.66398 11.5011C7.28323 11.5011 6.16398 10.3819 6.16398 9.00114C6.16398 7.62039 7.28323 6.50114 8.66398 6.50114C10.0447 6.50114 11.164 7.62039 11.164 9.00114Z" fill="#777E91"/>
</svg>
