<svg width="34" height="34" viewBox="0 0 34 34" fill="none" xmlns="http://www.w3.org/2000/svg">
<path fill-rule="evenodd" clip-rule="evenodd" d="M17 15.5833C14.4888 15.5833 12.252 15.6748 10.4244 15.791C8.69084 15.9012 7.35787 17.2238 7.23346 18.9451C7.14496 20.1696 7.08333 21.4598 7.08333 22.6667C7.08333 23.8736 7.14496 25.1638 7.23346 26.3883C7.35787 28.1095 8.69084 29.4322 10.4244 29.5424C12.252 29.6585 14.4888 29.75 17 29.75C19.5112 29.75 21.748 29.6585 23.5756 29.5424C25.3092 29.4322 26.6421 28.1095 26.7665 26.3883C26.855 25.1638 26.9167 23.8736 26.9167 22.6667C26.9167 21.4598 26.855 20.1696 26.7665 18.9451C26.6421 17.2238 25.3092 15.9012 23.5756 15.791C21.748 15.6748 19.5112 15.5833 17 15.5833ZM10.2446 12.9633C7.10282 13.163 4.63445 15.6009 4.4075 18.7408C4.3159 20.0081 4.25 21.3703 4.25 22.6667C4.25 23.963 4.3159 25.3252 4.4075 26.5925C4.63445 29.7325 7.10283 32.1703 10.2446 32.37C12.1235 32.4894 14.4209 32.5833 17 32.5833C19.5791 32.5833 21.8765 32.4894 23.7554 32.37C26.8972 32.1703 29.3656 29.7325 29.5925 26.5925C29.6841 25.3252 29.75 23.963 29.75 22.6667C29.75 21.3703 29.6841 20.0081 29.5925 18.7408C29.3656 15.6009 26.8972 13.163 23.7554 12.9633C21.8765 12.8439 19.5791 12.75 17 12.75C14.4209 12.75 12.1235 12.8439 10.2446 12.9633Z" fill="#F2DA7C"/>
<path fill-rule="evenodd" clip-rule="evenodd" d="M18.4167 23.7044C19.2636 23.2145 19.8334 22.2988 19.8334 21.2501C19.8334 19.6853 18.5649 18.4167 17.0001 18.4167C15.4353 18.4167 14.1667 19.6853 14.1667 21.2501C14.1667 22.2988 14.7365 23.2145 15.5834 23.7044V25.5001C15.5834 26.2825 16.2177 26.9167 17.0001 26.9167C17.7825 26.9167 18.4167 26.2825 18.4167 25.5001V23.7044Z" fill="#F2DA7C"/>
<path fill-rule="evenodd" clip-rule="evenodd" d="M9.91675 8.50008C9.91675 4.58806 13.0881 1.41675 17.0001 1.41675C20.9121 1.41675 24.0834 4.58806 24.0834 8.50008V14.1667C24.0834 14.9492 23.4492 15.5834 22.6667 15.5834C21.8843 15.5834 21.2501 14.9492 21.2501 14.1667V8.50008C21.2501 6.15287 19.3473 4.25008 17.0001 4.25008C14.6529 4.25008 12.7501 6.15287 12.7501 8.50008V14.1667C12.7501 14.9492 12.1158 15.5834 11.3334 15.5834C10.551 15.5834 9.91675 14.9492 9.91675 14.1667V8.50008Z" fill="#F2DA7C"/>
</svg>
