<svg width="34" height="34" viewBox="0 0 34 34" fill="none" xmlns="http://www.w3.org/2000/svg">
<g clip-path="url(#clip0)">
<path fill-rule="evenodd" clip-rule="evenodd" d="M24.0834 2.83333H9.91675C9.13434 2.83333 8.50008 3.4676 8.50008 4.25V29.75C8.50008 30.5324 9.13434 31.1667 9.91675 31.1667H24.0834C24.8658 31.1667 25.5001 30.5324 25.5001 29.75V4.25C25.5001 3.4676 24.8658 2.83333 24.0834 2.83333ZM9.91675 0C7.56954 0 5.66675 1.90279 5.66675 4.25V29.75C5.66675 32.0972 7.56954 34 9.91675 34H24.0834C26.4306 34 28.3334 32.0972 28.3334 29.75V4.25C28.3334 1.90279 26.4306 0 24.0834 0H9.91675Z" fill="#0E1940"/>
<path d="M18.4166 26.9167C18.4166 27.6991 17.7823 28.3333 16.9999 28.3333C16.2175 28.3333 15.5833 27.6991 15.5833 26.9167C15.5833 26.1343 16.2175 25.5 16.9999 25.5C17.7823 25.5 18.4166 26.1343 18.4166 26.9167Z" fill="#0E1940"/>
</g>
<defs>
<clipPath id="clip0">
<rect width="34" height="34" fill="white"/>
</clipPath>
</defs>
</svg>
