<svg width="19" height="16" viewBox="0 0 19 16" fill="none" xmlns="http://www.w3.org/2000/svg">
<path fill-rule="evenodd" clip-rule="evenodd" d="M1.88065 9.6665C0.502546 9.67042 -0.387051 11.2403 0.461947 12.4298C1.6778 14.133 3.88259 15.5 7.56344 15.5C13.2677 15.5 17.8465 10.8514 17.2055 5.35925L18.1446 3.48108C18.7959 2.17857 17.6642 0.69685 16.2362 0.98245L14.9955 1.23057C14.6666 1.05702 14.3262 0.926058 14.0353 0.831175C13.4683 0.646267 12.782 0.5 12.1468 0.5C11.0057 0.5 10.0209 0.792758 9.23819 1.37994C8.46444 1.96053 8.02861 2.72354 7.78944 3.42421C7.67919 3.74717 7.60577 4.07112 7.55866 4.38203C7.11594 4.24269 6.66451 4.05522 6.22256 3.82629C5.2199 3.30693 4.4091 2.64852 3.95173 2.07126C3.18437 1.10275 1.55817 1.17456 0.987522 2.43351C0.183238 4.20789 0.403863 6.31122 1.12681 8.01075C1.36913 8.58033 1.68434 9.14342 2.06943 9.66525C2.0035 9.666 1.94044 9.66633 1.88065 9.6665ZM7.56336 13.8333C4.34391 13.8333 2.67918 12.6672 1.81839 11.4614C1.77971 11.4072 1.81871 11.3333 1.88527 11.3332C2.76097 11.3307 4.55847 11.2892 5.74397 10.5954C5.80528 10.5595 5.79179 10.4691 5.72446 10.4465C2.96098 9.51733 1.39012 5.58216 2.50544 3.12158C2.53101 3.06517 2.60685 3.05772 2.64532 3.10628C3.91938 4.71432 6.70505 6.28933 9.12869 6.33242C9.18127 6.33333 9.22102 6.28558 9.21302 6.23361C9.11536 5.60044 8.74244 2.16667 12.1467 2.16667C12.9596 2.16667 14.1691 2.56319 14.6146 2.96942C14.6352 2.98819 14.6631 2.99672 14.6904 2.99125L16.5629 2.61675C16.6309 2.60315 16.6849 2.67371 16.6539 2.73573L15.4924 5.05849C15.4844 5.07462 15.4819 5.09312 15.4849 5.11088C16.2984 9.68333 12.5534 13.8333 7.56336 13.8333Z" fill="#777E91"/>
</svg>
